<svg xmlns="http://www.w3.org/2000/svg" viewBox="0 0 100 100">
  <!-- Background Circle -->
  <circle cx="50" cy="50" r="45" fill="#4CAF50" stroke="#2E7D32" stroke-width="2"/>
  
  <!-- Map Pin -->
  <path d="M50 15 C35 15 25 25 25 40 C25 55 50 75 50 75 C50 75 75 55 75 40 C75 25 65 15 50 15 Z" fill="white"/>
  
  <!-- Pin Dot -->
  <circle cx="50" cy="45" r="8" fill="#4CAF50"/>
  
  <!-- Fork and Knife Icons -->
  <g fill="white" opacity="0.9">
    <!-- Fork -->
    <rect x="42" y="60" width="2" height="12" rx="1"/>
    <rect x="40" y="62" width="2" height="8" rx="1"/>
    <rect x="44" y="62" width="2" height="8" rx="1"/>
    
    <!-- Knife -->
    <rect x="56" y="60" width="2" height="12" rx="1"/>
    <path d="M56 60 L62 66 L60 68 L54 62 Z"/>
  </g>
  
  <!-- V for Vale -->
  <text x="50" y="85" text-anchor="middle" fill="white" font-family="Arial, sans-serif" font-size="12" font-weight="bold">V</text>
</svg> 